<svg width="11" height="11" viewBox="0 0 11 11" fill="none" xmlns="http://www.w3.org/2000/svg">
<path fill-rule="evenodd" clip-rule="evenodd" d="M5.29995 0.475342C2.48444 0.475342 0.199951 2.75983 0.199951 5.57534C0.199951 8.39086 2.48444 10.6753 5.29995 10.6753C8.10992 10.6753 10.4 8.39086 10.4 5.57534C10.4 2.75983 8.10992 0.475342 5.29995 0.475342ZM8.6686 2.82621C9.27706 3.56742 9.64216 4.5133 9.65322 5.53661C9.5094 5.50898 8.0712 5.21579 6.62197 5.39834C6.58879 5.32643 6.56112 5.24897 6.52794 5.17155C6.43942 4.96137 6.33987 4.74564 6.2403 4.54097C7.84441 3.88826 8.57457 2.9479 8.6686 2.82621ZM5.29995 1.22762C6.40624 1.22762 7.41849 1.64248 8.18738 2.32285C8.10992 2.43348 7.45167 3.31298 5.90287 3.89378C5.18931 2.58282 4.39834 1.50972 4.27664 1.34378C4.60297 1.26634 4.94595 1.22762 5.29995 1.22762ZM3.44693 1.63695C3.56308 1.79183 4.33749 2.87046 5.0621 4.15375C3.02652 4.69585 1.2288 4.68479 1.0352 4.68479C1.3173 3.3351 2.22999 2.21222 3.44693 1.63695ZM0.941166 5.58089C0.941166 5.53661 0.941166 5.49237 0.941166 5.44813C1.12924 5.45364 3.24225 5.48131 5.4161 4.82861C5.54335 5.07197 5.6595 5.32088 5.77014 5.5698C5.7148 5.5864 5.65396 5.60301 5.59865 5.61958C3.35288 6.3442 2.15809 8.32447 2.05852 8.49041C1.36709 7.72155 0.941166 6.69823 0.941166 5.58089ZM5.29995 9.93412C4.29321 9.93412 3.36394 9.59118 2.62826 9.0159C2.7057 8.8555 3.59072 7.15182 6.04669 6.29444C6.05775 6.2889 6.06329 6.2889 6.07435 6.28338C6.68833 7.87088 6.93727 9.20396 7.00364 9.58563C6.47815 9.81242 5.90287 9.93412 5.29995 9.93412ZM7.72825 9.18739C7.68401 8.92187 7.45167 7.64964 6.88194 6.08423C8.24823 5.8685 9.443 6.22253 9.59237 6.27232C9.4043 7.4837 8.70733 8.52913 7.72825 9.18739Z" fill="#98A2B3"/>
</svg>
