<svg width="6" height="6" viewBox="0 0 6 6" fill="none" xmlns="http://www.w3.org/2000/svg">
<path d="M3.39102 0.425537C3.72684 0.425537 4.03732 0.60413 4.20616 0.894419L5.00146 2.26176C5.17193 2.55485 5.17193 2.9169 5.00146 3.20999L4.20616 4.57733C4.03732 4.86762 3.72684 5.04621 3.39102 5.04621H1.78834C1.45252 5.04621 1.14203 4.86762 0.973193 4.57733L0.177902 3.20999C0.00743109 2.9169 0.00743114 2.55485 0.177902 2.26176L0.973194 0.894419C1.14204 0.60413 1.45252 0.425537 1.78834 0.425537L3.39102 0.425537Z" fill="#1386F5"/>
<path fill-rule="evenodd" clip-rule="evenodd" d="M3.48547 3.44306C3.56957 3.50452 3.58876 3.62383 3.51599 3.69836C3.01065 4.21596 2.1686 4.21596 1.66325 3.69836C1.59049 3.62383 1.60968 3.50452 1.69378 3.44306V3.44306C1.77788 3.38161 1.89477 3.40194 1.97185 3.47201C2.31999 3.78848 2.85926 3.78848 3.2074 3.47201C3.28447 3.40194 3.40137 3.38161 3.48547 3.44306V3.44306Z" fill="white"/>
</svg>
