<svg width="11" height="11" viewBox="0 0 11 11" fill="none" xmlns="http://www.w3.org/2000/svg">
<g clip-path="url(#clip0_1602_110)">
<path d="M9.84486 0.475342H1.15295C0.736582 0.475342 0.399902 0.804053 0.399902 1.21046V9.93823C0.399902 10.3446 0.736582 10.6753 1.15295 10.6753H9.84486C10.2612 10.6753 10.5999 10.3446 10.5999 9.94023V1.21046C10.5999 0.804053 10.2612 0.475342 9.84486 0.475342ZM3.42604 9.16726H1.91197V4.29835H3.42604V9.16726ZM2.669 3.63495C2.18291 3.63495 1.79045 3.24249 1.79045 2.75839C1.79045 2.27429 2.18291 1.88183 2.669 1.88183C3.15311 1.88183 3.54557 2.27429 3.54557 2.75839C3.54557 3.2405 3.15311 3.63495 2.669 3.63495ZM9.09182 9.16726H7.57975V6.80054C7.57975 6.23675 7.56979 5.5096 6.79283 5.5096C6.00592 5.5096 5.88639 6.12519 5.88639 6.76069V9.16726H4.37631V4.29835H5.82662V4.96374H5.84654C6.04775 4.58124 6.54182 4.17683 7.27693 4.17683C8.80893 4.17683 9.09182 5.18487 9.09182 6.49573V9.16726V9.16726Z" fill="#98A2B3"/>
</g>
<defs>
<clipPath id="clip0_1602_110">
<rect width="10.2" height="10.2" fill="white" transform="translate(0.399902 0.475342)"/>
</clipPath>
</defs>
</svg>
