<svg width="51" height="10" viewBox="0 0 51 10" fill="none" xmlns="http://www.w3.org/2000/svg">
<g clip-path="url(#clip0_536_5758)">
<path d="M4.7784 1.4826C4.85099 1.30807 5.09823 1.30807 5.17081 1.4826L6.0489 3.59378C6.07951 3.66735 6.1487 3.71762 6.22813 3.72399L8.50732 3.90671C8.69574 3.92182 8.77214 4.15695 8.62858 4.27992L6.89208 5.76742C6.83156 5.81926 6.80513 5.9006 6.82362 5.97811L7.35415 8.20222C7.39801 8.38608 7.19799 8.5314 7.03668 8.43287L5.08538 7.24102C5.01737 7.19948 4.93185 7.19948 4.86384 7.24102L2.91253 8.43287C2.75123 8.5314 2.55121 8.38608 2.59507 8.20222L3.1256 5.97811C3.14409 5.9006 3.11766 5.81926 3.05714 5.76742L1.32063 4.27992C1.17708 4.15695 1.25348 3.92182 1.4419 3.90671L3.72109 3.72399C3.80052 3.71762 3.86971 3.66735 3.90032 3.59378L4.7784 1.4826Z" fill="#F2F4F7"/>
<g clip-path="url(#clip1_536_5758)">
<path d="M4.7784 1.4826C4.85099 1.30807 5.09823 1.30807 5.17081 1.4826L6.0489 3.59378C6.07951 3.66735 6.1487 3.71762 6.22813 3.72399L8.50732 3.90671C8.69574 3.92182 8.77214 4.15695 8.62858 4.27992L6.89208 5.76742C6.83156 5.81926 6.80513 5.9006 6.82362 5.97811L7.35415 8.20222C7.39801 8.38608 7.19799 8.5314 7.03668 8.43287L5.08538 7.24102C5.01737 7.19948 4.93185 7.19948 4.86384 7.24102L2.91253 8.43287C2.75123 8.5314 2.55121 8.38608 2.59507 8.20222L3.1256 5.97811C3.14409 5.9006 3.11766 5.81926 3.05714 5.76742L1.32063 4.27992C1.17708 4.15695 1.25348 3.92182 1.4419 3.90671L3.72109 3.72399C3.80052 3.71762 3.86971 3.66735 3.90032 3.59378L4.7784 1.4826Z" fill="#DBDEE6"/>
</g>
</g>
<g clip-path="url(#clip2_536_5758)">
<path d="M14.9784 1.4826C15.0509 1.30807 15.2982 1.30807 15.3708 1.4826L16.2489 3.59378C16.2795 3.66735 16.3486 3.71762 16.4281 3.72399L18.7073 3.90671C18.8957 3.92182 18.9721 4.15695 18.8285 4.27992L17.092 5.76742C17.0315 5.81926 17.0051 5.9006 17.0236 5.97811L17.5541 8.20222C17.598 8.38608 17.3979 8.5314 17.2366 8.43287L15.2853 7.24102C15.2173 7.19948 15.1318 7.19948 15.0638 7.24102L13.1125 8.43287C12.9512 8.5314 12.7512 8.38608 12.795 8.20222L13.3255 5.97811C13.344 5.9006 13.3176 5.81926 13.2571 5.76742L11.5206 4.27992C11.377 4.15695 11.4534 3.92182 11.6418 3.90671L13.921 3.72399C14.0005 3.71762 14.0697 3.66735 14.1003 3.59378L14.9784 1.4826Z" fill="#F2F4F7"/>
<g clip-path="url(#clip3_536_5758)">
<path d="M14.9784 1.4826C15.0509 1.30807 15.2982 1.30807 15.3708 1.4826L16.2489 3.59378C16.2795 3.66735 16.3486 3.71762 16.4281 3.72399L18.7073 3.90671C18.8957 3.92182 18.9721 4.15695 18.8285 4.27992L17.092 5.76742C17.0315 5.81926 17.0051 5.9006 17.0236 5.97811L17.5541 8.20222C17.598 8.38608 17.3979 8.5314 17.2366 8.43287L15.2853 7.24102C15.2173 7.19948 15.1318 7.19948 15.0638 7.24102L13.1125 8.43287C12.9512 8.5314 12.7512 8.38608 12.795 8.20222L13.3255 5.97811C13.344 5.9006 13.3176 5.81926 13.2571 5.76742L11.5206 4.27992C11.377 4.15695 11.4534 3.92182 11.6418 3.90671L13.921 3.72399C14.0005 3.71762 14.0697 3.66735 14.1003 3.59378L14.9784 1.4826Z" fill="#DBDEE6"/>
</g>
</g>
<g clip-path="url(#clip4_536_5758)">
<path d="M25.1783 1.4826C25.2509 1.30807 25.4981 1.30807 25.5707 1.4826L26.4488 3.59378C26.4794 3.66735 26.5486 3.71762 26.628 3.72399L28.9072 3.90671C29.0956 3.92182 29.172 4.15695 29.0285 4.27992L27.292 5.76742C27.2315 5.81926 27.205 5.9006 27.2235 5.97811L27.7541 8.20222C27.7979 8.38608 27.5979 8.5314 27.4366 8.43287L25.4853 7.24102C25.4173 7.19948 25.3317 7.19948 25.2637 7.24102L23.3124 8.43287C23.1511 8.5314 22.9511 8.38608 22.995 8.20222L23.5255 5.97811C23.544 5.9006 23.5176 5.81926 23.457 5.76742L21.7205 4.27992C21.577 4.15695 21.6534 3.92182 21.8418 3.90671L24.121 3.72399C24.2004 3.71762 24.2696 3.66735 24.3002 3.59378L25.1783 1.4826Z" fill="#F2F4F7"/>
<g clip-path="url(#clip5_536_5758)">
<path d="M25.1783 1.4826C25.2509 1.30807 25.4981 1.30807 25.5707 1.4826L26.4488 3.59378C26.4794 3.66735 26.5486 3.71762 26.628 3.72399L28.9072 3.90671C29.0956 3.92182 29.172 4.15695 29.0285 4.27992L27.292 5.76742C27.2315 5.81926 27.205 5.9006 27.2235 5.97811L27.7541 8.20222C27.7979 8.38608 27.5979 8.5314 27.4366 8.43287L25.4853 7.24102C25.4173 7.19948 25.3317 7.19948 25.2637 7.24102L23.3124 8.43287C23.1511 8.5314 22.9511 8.38608 22.995 8.20222L23.5255 5.97811C23.544 5.9006 23.5176 5.81926 23.457 5.76742L21.7205 4.27992C21.577 4.15695 21.6534 3.92182 21.8418 3.90671L24.121 3.72399C24.2004 3.71762 24.2696 3.66735 24.3002 3.59378L25.1783 1.4826Z" fill="#DBDEE6"/>
</g>
</g>
<g clip-path="url(#clip6_536_5758)">
<path d="M35.3785 1.4826C35.4511 1.30807 35.6983 1.30807 35.7709 1.4826L36.649 3.59378C36.6796 3.66735 36.7488 3.71762 36.8282 3.72399L39.1074 3.90671C39.2958 3.92182 39.3722 4.15695 39.2287 4.27992L37.4922 5.76742C37.4317 5.81926 37.4052 5.9006 37.4237 5.97811L37.9542 8.20222C37.9981 8.38608 37.7981 8.5314 37.6368 8.43287L35.6855 7.24102C35.6175 7.19948 35.5319 7.19948 35.4639 7.24102L33.5126 8.43287C33.3513 8.5314 33.1513 8.38608 33.1952 8.20222L33.7257 5.97811C33.7442 5.9006 33.7178 5.81926 33.6572 5.76742L31.9207 4.27992C31.7772 4.15695 31.8536 3.92182 32.042 3.90671L34.3212 3.72399C34.4006 3.71762 34.4698 3.66735 34.5004 3.59378L35.3785 1.4826Z" fill="#F2F4F7"/>
<g clip-path="url(#clip7_536_5758)">
<path d="M35.3785 1.4826C35.4511 1.30807 35.6983 1.30807 35.7709 1.4826L36.649 3.59378C36.6796 3.66735 36.7488 3.71762 36.8282 3.72399L39.1074 3.90671C39.2958 3.92182 39.3722 4.15695 39.2287 4.27992L37.4922 5.76742C37.4317 5.81926 37.4052 5.9006 37.4237 5.97811L37.9542 8.20222C37.9981 8.38608 37.7981 8.5314 37.6368 8.43287L35.6855 7.24102C35.6175 7.19948 35.5319 7.19948 35.4639 7.24102L33.5126 8.43287C33.3513 8.5314 33.1513 8.38608 33.1952 8.20222L33.7257 5.97811C33.7442 5.9006 33.7178 5.81926 33.6572 5.76742L31.9207 4.27992C31.7772 4.15695 31.8536 3.92182 32.042 3.90671L34.3212 3.72399C34.4006 3.71762 34.4698 3.66735 34.5004 3.59378L35.3785 1.4826Z" fill="#DBDEE6"/>
</g>
</g>
<g clip-path="url(#clip8_536_5758)">
<path d="M45.5785 1.4826C45.651 1.30807 45.8983 1.30807 45.9709 1.4826L46.849 3.59378C46.8796 3.66735 46.9487 3.71762 47.0282 3.72399L49.3074 3.90671C49.4958 3.92182 49.5722 4.15695 49.4286 4.27992L47.6921 5.76742C47.6316 5.81926 47.6052 5.9006 47.6237 5.97811L48.1542 8.20222C48.1981 8.38608 47.998 8.5314 47.8367 8.43287L45.8854 7.24102C45.8174 7.19948 45.7319 7.19948 45.6639 7.24102L43.7126 8.43287C43.5513 8.5314 43.3513 8.38608 43.3951 8.20222L43.9256 5.97811C43.9441 5.9006 43.9177 5.81926 43.8572 5.76742L42.1207 4.27992C41.9771 4.15695 42.0535 3.92182 42.2419 3.90671L44.5211 3.72399C44.6006 3.71762 44.6698 3.66735 44.7004 3.59378L45.5785 1.4826Z" fill="#F2F4F7"/>
<g clip-path="url(#clip9_536_5758)">
<path d="M45.5785 1.4826C45.651 1.30807 45.8983 1.30807 45.9709 1.4826L46.849 3.59378C46.8796 3.66735 46.9487 3.71762 47.0282 3.72399L49.3074 3.90671C49.4958 3.92182 49.5722 4.15695 49.4286 4.27992L47.6921 5.76742C47.6316 5.81926 47.6052 5.9006 47.6237 5.97811L48.1542 8.20222C48.1981 8.38608 47.998 8.5314 47.8367 8.43287L45.8854 7.24102C45.8174 7.19948 45.7319 7.19948 45.6639 7.24102L43.7126 8.43287C43.5513 8.5314 43.3513 8.38608 43.3951 8.20222L43.9256 5.97811C43.9441 5.9006 43.9177 5.81926 43.8572 5.76742L42.1207 4.27992C41.9771 4.15695 42.0535 3.92182 42.2419 3.90671L44.5211 3.72399C44.6006 3.71762 44.6698 3.66735 44.7004 3.59378L45.5785 1.4826Z" fill="#DBDEE6"/>
</g>
</g>
<defs>
<clipPath id="clip0_536_5758">
<rect width="8.5" height="8.5" fill="white" transform="translate(0.724609 0.79834)"/>
</clipPath>
<clipPath id="clip1_536_5758">
<rect width="8.5" height="8.5" fill="white" transform="translate(0.724609 0.79834)"/>
</clipPath>
<clipPath id="clip2_536_5758">
<rect width="8.5" height="8.5" fill="white" transform="translate(10.9246 0.79834)"/>
</clipPath>
<clipPath id="clip3_536_5758">
<rect width="8.5" height="8.5" fill="white" transform="translate(10.9246 0.79834)"/>
</clipPath>
<clipPath id="clip4_536_5758">
<rect width="8.5" height="8.5" fill="white" transform="translate(21.1245 0.79834)"/>
</clipPath>
<clipPath id="clip5_536_5758">
<rect width="8.5" height="8.5" fill="white" transform="translate(21.1245 0.79834)"/>
</clipPath>
<clipPath id="clip6_536_5758">
<rect width="8.5" height="8.5" fill="white" transform="translate(31.3247 0.79834)"/>
</clipPath>
<clipPath id="clip7_536_5758">
<rect width="8.5" height="8.5" fill="white" transform="translate(31.3247 0.79834)"/>
</clipPath>
<clipPath id="clip8_536_5758">
<rect width="8.5" height="8.5" fill="white" transform="translate(41.5247 0.79834)"/>
</clipPath>
<clipPath id="clip9_536_5758">
<rect width="8.5" height="8.5" fill="white" transform="translate(41.5247 0.79834)"/>
</clipPath>
</defs>
</svg>
