<svg width="32" height="32" viewBox="0 0 32 32" fill="none" xmlns="http://www.w3.org/2000/svg">
<g clip-path="url(#clip0_536_5713)">
<path d="M9.67573 9.72549C11.0841 9.72549 12.2257 8.58381 12.2257 7.17549C12.2257 5.76716 11.0841 4.62549 9.67573 4.62549C8.26741 4.62549 7.12573 5.76716 7.12573 7.17549C7.12573 8.58381 8.26741 9.72549 9.67573 9.72549Z" stroke="#20AD96" stroke-width="1.16875" stroke-linecap="round" stroke-linejoin="round"/>
<path d="M7.12559 28.8502V22.4752L5.85059 21.2002V16.1002C5.85059 15.762 5.98492 15.4377 6.22403 15.1986C6.46313 14.9595 6.78743 14.8252 7.12559 14.8252H12.2256C12.5637 14.8252 12.888 14.9595 13.1271 15.1986C13.3663 15.4377 13.5006 15.762 13.5006 16.1002V21.2002L12.2256 22.4752V28.8502" stroke="#20AD96" stroke-width="1.16875" stroke-linecap="round" stroke-linejoin="round"/>
<path d="M22.4257 9.72549C23.8341 9.72549 24.9757 8.58381 24.9757 7.17549C24.9757 5.76716 23.8341 4.62549 22.4257 4.62549C21.0174 4.62549 19.8757 5.76716 19.8757 7.17549C19.8757 8.58381 21.0174 9.72549 22.4257 9.72549Z" stroke="#3F3A64" stroke-width="1.16875" stroke-linecap="round" stroke-linejoin="round"/>
<path d="M19.8757 28.8502V23.7502H17.3257L19.8757 16.1002C19.8757 15.762 20.01 15.4377 20.2491 15.1986C20.4882 14.9595 20.8125 14.8252 21.1507 14.8252H23.7007C24.0388 14.8252 24.3631 14.9595 24.6022 15.1986C24.8414 15.4377 24.9757 15.762 24.9757 16.1002L27.5257 23.7502H24.9757V28.8502" stroke="#3F3A64" stroke-width="1.16875" stroke-linecap="round" stroke-linejoin="round"/>
</g>
<defs>
<clipPath id="clip0_536_5713">
<rect width="30.6" height="30.6" fill="white" transform="translate(0.750732 0.800537)"/>
</clipPath>
</defs>
</svg>
