<svg width="64" height="12" viewBox="0 0 64 12" fill="none" xmlns="http://www.w3.org/2000/svg">
<g clip-path="url(#clip0_1602_60)">
<path d="M7.51135 1.33057C8.20604 1.33057 8.84831 1.70001 9.19762 2.30051L10.8427 5.12904C11.1954 5.73534 11.1954 6.48428 10.8427 7.09058L9.19762 9.91913C8.84831 10.5196 8.20604 10.8891 7.51135 10.8891H4.19598C3.50129 10.8891 2.85902 10.5196 2.50975 9.91913L0.864579 7.09058C0.511937 6.48428 0.511938 5.73534 0.864579 5.12904L2.50975 2.30051C2.85902 1.70001 3.50129 1.33057 4.19598 1.33057H7.51135Z" fill="#20AD96"/>
<path d="M3.92847 8.32864L4.99915 7.25796H7.49739C7.59204 7.25796 7.68281 7.22037 7.74975 7.15343C7.81667 7.08651 7.85428 6.99573 7.85428 6.90107V4.75972C7.85428 4.66507 7.81667 4.5743 7.74975 4.50736C7.68281 4.44043 7.59204 4.40283 7.49739 4.40283H4.28536C4.1907 4.40283 4.09993 4.44043 4.033 4.50736C3.96607 4.5743 3.92847 4.66507 3.92847 4.75972V8.32864Z" stroke="white" stroke-width="0.682749" stroke-linecap="round" stroke-linejoin="round"/>
<path d="M16.0766 8.32852H15.0774V3.46208H16.0766V5.49626H18.1822V3.46208H19.1814V8.32852H18.1822V6.36897H16.0766V8.32852ZM22.6044 8.32852H21.7933L21.7447 7.94245C21.6257 8.0852 21.4786 8.19659 21.3035 8.27662C21.1283 8.35448 20.9357 8.39341 20.7259 8.39341C20.4988 8.39341 20.2966 8.35015 20.1192 8.26364C19.9419 8.17495 19.8024 8.05383 19.7007 7.90028C19.5991 7.74455 19.5483 7.56827 19.5483 7.37145C19.5483 7.16382 19.6034 6.98106 19.7138 6.82317C19.824 6.66528 19.9754 6.542 20.168 6.45332C20.3626 6.36248 20.5832 6.31706 20.8297 6.31706C20.9746 6.31706 21.1196 6.33328 21.2645 6.36572C21.4116 6.39817 21.5478 6.44359 21.6733 6.50198V6.41763C21.6733 6.28786 21.6365 6.17647 21.563 6.08347C21.4916 5.9883 21.3921 5.91476 21.2645 5.86286C21.1391 5.81095 20.9985 5.78499 20.8428 5.78499C20.6935 5.78499 20.5454 5.80878 20.3983 5.85637C20.2534 5.90395 20.1192 5.97532 19.996 6.07049L19.743 5.35999C19.9614 5.24752 20.182 5.16317 20.4048 5.10693C20.6297 5.04854 20.8471 5.01934 21.0569 5.01934C21.3727 5.01934 21.6462 5.08207 21.8777 5.20751C22.1091 5.33079 22.2876 5.50598 22.413 5.73308C22.5406 5.95802 22.6044 6.22513 22.6044 6.53443V8.32852ZM20.9303 7.67642C21.0536 7.67642 21.1715 7.64938 21.284 7.59531C21.3964 7.54124 21.4873 7.4677 21.5565 7.3747C21.6279 7.2817 21.6658 7.17896 21.67 7.06649V7.04378C21.5749 6.9789 21.4689 6.92915 21.3521 6.89454C21.2375 6.85778 21.1207 6.83939 21.0017 6.83939C20.8243 6.83939 20.6794 6.87832 20.567 6.95619C20.4545 7.03405 20.3983 7.13462 20.3983 7.2579C20.3983 7.33793 20.421 7.41039 20.4664 7.47527C20.514 7.53799 20.5778 7.58774 20.6578 7.62451C20.7378 7.65911 20.8287 7.67642 20.9303 7.67642ZM23.9997 9.95065H23.0654V5.08422H23.8829L23.9315 5.52545C24.07 5.36756 24.2355 5.24428 24.428 5.1556C24.6226 5.06476 24.8346 5.01934 25.0638 5.01934C25.3623 5.01934 25.6272 5.09288 25.8587 5.23995C26.0901 5.38487 26.2729 5.58493 26.4069 5.84015C26.5411 6.0932 26.6081 6.38194 26.6081 6.70638C26.6081 7.02864 26.5411 7.31739 26.4069 7.5726C26.2729 7.82782 26.0901 8.02897 25.8587 8.17604C25.6272 8.32095 25.3623 8.39341 25.0638 8.39341C24.8519 8.39341 24.6551 8.35556 24.4734 8.27986C24.2938 8.20199 24.1359 8.09494 23.9997 7.95867V9.95065ZM24.827 7.55638C24.9892 7.55638 25.132 7.52069 25.2552 7.44932C25.3785 7.37578 25.4748 7.27521 25.544 7.1476C25.6154 7.01782 25.651 6.87075 25.651 6.70638C25.651 6.53983 25.6154 6.39276 25.544 6.26515C25.4748 6.13755 25.3785 6.03697 25.2552 5.96343C25.132 5.88989 24.9903 5.85312 24.8302 5.85312C24.6788 5.85312 24.5426 5.88665 24.4215 5.9537C24.3003 6.01858 24.2019 6.10942 24.1262 6.22622C24.0527 6.34301 24.0105 6.47711 23.9997 6.62851V6.79072C24.0105 6.9378 24.0527 7.06974 24.1262 7.18653C24.1998 7.30116 24.2971 7.392 24.4183 7.45905C24.5394 7.52394 24.6756 7.55638 24.827 7.55638ZM27.8672 9.95065H26.9328V5.08422H27.7503L27.7991 5.52545C27.9375 5.36756 28.1029 5.24428 28.2954 5.1556C28.4901 5.06476 28.702 5.01934 28.9313 5.01934C29.2298 5.01934 29.4948 5.09288 29.7261 5.23995C29.9576 5.38487 30.1403 5.58493 30.2745 5.84015C30.4085 6.0932 30.4756 6.38194 30.4756 6.70638C30.4756 7.02864 30.4085 7.31739 30.2745 7.5726C30.1403 7.82782 29.9576 8.02897 29.7261 8.17604C29.4948 8.32095 29.2298 8.39341 28.9313 8.39341C28.7193 8.39341 28.5225 8.35556 28.3408 8.27986C28.1613 8.20199 28.0035 8.09494 27.8672 7.95867V9.95065ZM28.6945 7.55638C28.8566 7.55638 28.9994 7.52069 29.1227 7.44932C29.246 7.37578 29.3422 7.27521 29.4115 7.1476C29.4828 7.01782 29.5185 6.87075 29.5185 6.70638C29.5185 6.53983 29.4828 6.39276 29.4115 6.26515C29.3422 6.13755 29.246 6.03697 29.1227 5.96343C28.9994 5.88989 28.8577 5.85312 28.6977 5.85312C28.5463 5.85312 28.41 5.88665 28.2889 5.9537C28.1678 6.01858 28.0694 6.10942 27.9937 6.22622C27.9202 6.34301 27.878 6.47711 27.8672 6.62851V6.79072C27.878 6.9378 27.9202 7.06974 27.9937 7.18653C28.0672 7.30116 28.1646 7.392 28.2857 7.45905C28.4068 7.52394 28.5431 7.55638 28.6945 7.55638ZM32.3932 9.95065H31.4005L32.0753 8.32528L30.4369 5.08422H31.488L32.5165 7.26439L33.4184 5.08422H34.4079L32.3932 9.95065ZM40.086 7.7186C39.8589 7.93921 39.5895 8.11224 39.2781 8.23768C38.9667 8.36313 38.6281 8.42585 38.2627 8.42585C37.8928 8.42585 37.5521 8.36313 37.2407 8.23768C36.9293 8.11008 36.6578 7.93272 36.4264 7.70562C36.1971 7.47636 36.0187 7.20816 35.8911 6.90103C35.7635 6.5939 35.6997 6.25866 35.6997 5.8953C35.6997 5.53194 35.7635 5.1967 35.8911 4.88956C36.0187 4.58028 36.1971 4.31209 36.4264 4.08499C36.6578 3.85788 36.9293 3.68161 37.2407 3.55616C37.5521 3.42856 37.8928 3.36475 38.2627 3.36475C38.626 3.36475 38.9624 3.42747 39.2716 3.55292C39.5831 3.67837 39.8524 3.85248 40.0795 4.07525L39.382 4.77601C39.2457 4.60948 39.0791 4.47863 38.8823 4.38346C38.6876 4.28613 38.4757 4.23746 38.2464 4.23746C38.028 4.23746 37.8257 4.27964 37.6398 4.36399C37.456 4.44618 37.2948 4.56298 37.1564 4.71438C37.018 4.86361 36.9109 5.0388 36.8352 5.23995C36.7595 5.4411 36.7217 5.65847 36.7217 5.89205C36.7217 6.12998 36.7595 6.3495 36.8352 6.55065C36.9109 6.7518 37.018 6.92807 37.1564 7.07947C37.2948 7.22871 37.456 7.3455 37.6398 7.42985C37.8257 7.51204 38.028 7.55313 38.2464 7.55313C38.4757 7.55313 38.6876 7.50555 38.8823 7.41039C39.077 7.31306 39.2425 7.18112 39.3787 7.01458L40.086 7.7186ZM41.9452 8.39341C41.6121 8.39341 41.3137 8.32095 41.0498 8.17604C40.7859 8.02897 40.5782 7.8289 40.4268 7.57584C40.2777 7.32063 40.203 7.0308 40.203 6.70638C40.203 6.38411 40.2777 6.09644 40.4268 5.84339C40.5782 5.58817 40.7859 5.38702 41.0498 5.23995C41.3137 5.09288 41.6121 5.01934 41.9452 5.01934C42.2783 5.01934 42.5746 5.09288 42.8341 5.23995C43.0958 5.38702 43.3013 5.58817 43.4506 5.84339C43.602 6.09644 43.6777 6.38411 43.6777 6.70638C43.6777 7.0308 43.602 7.32063 43.4506 7.57584C43.3013 7.8289 43.0958 8.02897 42.8341 8.17604C42.5746 8.32095 42.2783 8.39341 41.9452 8.39341ZM41.942 7.55963C42.0912 7.55963 42.2242 7.52285 42.341 7.44932C42.46 7.37362 42.5529 7.27197 42.62 7.14435C42.6892 7.01458 42.7238 6.86642 42.7238 6.69988C42.7238 6.53983 42.6892 6.396 42.62 6.26839C42.5529 6.14079 42.46 6.04021 42.341 5.96668C42.2242 5.89098 42.0912 5.85312 41.942 5.85312C41.7906 5.85312 41.6554 5.89098 41.5364 5.96668C41.4197 6.04021 41.3266 6.14079 41.2574 6.26839C41.1903 6.396 41.1568 6.53983 41.1568 6.69988C41.1568 6.86642 41.1903 7.01458 41.2574 7.14435C41.3266 7.27197 41.4197 7.37362 41.5364 7.44932C41.6554 7.52285 41.7906 7.55963 41.942 7.55963ZM46.8995 8.32852H46.0885L46.0397 7.94245C45.9208 8.0852 45.7737 8.19659 45.5985 8.27662C45.4234 8.35448 45.2308 8.39341 45.0211 8.39341C44.794 8.39341 44.5917 8.35015 44.4144 8.26364C44.237 8.17495 44.0975 8.05383 43.9958 7.90028C43.8942 7.74455 43.8433 7.56827 43.8433 7.37145C43.8433 7.16382 43.8985 6.98106 44.0088 6.82317C44.1192 6.66528 44.2706 6.542 44.463 6.45332C44.6577 6.36248 44.8783 6.31706 45.1248 6.31706C45.2698 6.31706 45.4147 6.33328 45.5596 6.36572C45.7066 6.39817 45.8429 6.44359 45.9684 6.50198V6.41763C45.9684 6.28786 45.9316 6.17647 45.858 6.08347C45.7867 5.9883 45.6872 5.91476 45.5596 5.86286C45.4341 5.81095 45.2936 5.78499 45.1378 5.78499C44.9886 5.78499 44.8405 5.80878 44.6934 5.85637C44.5484 5.90395 44.4144 5.97532 44.291 6.07049L44.038 5.35999C44.2565 5.24752 44.4771 5.16317 44.6998 5.10693C44.9248 5.04854 45.1422 5.01934 45.3519 5.01934C45.6677 5.01934 45.9413 5.08207 46.1728 5.20751C46.4042 5.33079 46.5826 5.50598 46.7081 5.73308C46.8357 5.95802 46.8995 6.22513 46.8995 6.53443V8.32852ZM45.2255 7.67642C45.3487 7.67642 45.4666 7.64938 45.579 7.59531C45.6915 7.54124 45.7823 7.4677 45.8516 7.3747C45.923 7.2817 45.9608 7.17896 45.9651 7.06649V7.04378C45.87 6.9789 45.764 6.92915 45.6472 6.89454C45.5325 6.85778 45.4158 6.83939 45.2968 6.83939C45.1195 6.83939 44.9746 6.87832 44.8621 6.95619C44.7496 7.03405 44.6934 7.13462 44.6934 7.2579C44.6934 7.33793 44.7161 7.41039 44.7615 7.47527C44.8091 7.53799 44.8729 7.58774 44.9529 7.62451C45.0329 7.65911 45.1238 7.67642 45.2255 7.67642ZM50.2349 7.81268C50.077 7.99436 49.8834 8.1371 49.6541 8.24093C49.4249 8.34258 49.173 8.39341 48.8982 8.39341C48.5651 8.39341 48.2667 8.32095 48.0028 8.17604C47.7411 8.02897 47.5345 7.82782 47.3831 7.5726C47.2339 7.31739 47.1593 7.02864 47.1593 6.70638C47.1593 6.38194 47.2339 6.0932 47.3831 5.84015C47.5345 5.58493 47.7411 5.38487 48.0028 5.23995C48.2667 5.09288 48.5651 5.01934 48.8982 5.01934C49.1707 5.01934 49.4216 5.07017 49.6509 5.17182C49.8802 5.27347 50.0738 5.41406 50.2316 5.59358L49.6834 6.16783C49.599 6.07049 49.492 5.99479 49.3622 5.94072C49.2346 5.88448 49.1005 5.85637 48.9599 5.85637C48.7977 5.85637 48.6528 5.89314 48.5251 5.96668C48.3975 6.03805 48.297 6.13755 48.2234 6.26515C48.1499 6.3906 48.1132 6.53551 48.1132 6.69988C48.1132 6.86642 48.1499 7.01458 48.2234 7.14435C48.297 7.27413 48.3975 7.37578 48.5251 7.44932C48.6528 7.52069 48.7977 7.55638 48.9599 7.55638C49.1005 7.55638 49.2357 7.52935 49.3654 7.47527C49.4952 7.41904 49.6012 7.34226 49.6834 7.24493L50.2349 7.81268ZM50.5401 8.32852V3.46208H51.4713V5.46705C51.7048 5.16858 52.0401 5.01934 52.477 5.01934C52.8857 5.01934 53.2048 5.14587 53.434 5.39892C53.6633 5.64981 53.7779 6.00128 53.7779 6.45332V8.32852H52.8468V6.69988C52.8468 6.42953 52.7873 6.22082 52.6684 6.07373C52.5494 5.92666 52.3829 5.85312 52.1688 5.85312C51.9503 5.85312 51.7794 5.92774 51.6561 6.07698C51.5329 6.22622 51.4713 6.43385 51.4713 6.69988V8.32852H50.5401ZM54.7093 4.30884C54.586 4.30884 54.4822 4.26558 54.3979 4.17907C54.3135 4.09256 54.2713 3.98765 54.2713 3.86437C54.2713 3.74109 54.3135 3.63727 54.3979 3.55292C54.4822 3.46641 54.586 3.42315 54.7093 3.42315C54.8347 3.42315 54.9396 3.46641 55.024 3.55292C55.1105 3.63727 55.1538 3.74109 55.1538 3.86437C55.1538 3.98765 55.1105 4.09256 55.024 4.17907C54.9396 4.26558 54.8347 4.30884 54.7093 4.30884ZM55.1765 8.32852H54.2454V5.08422H55.1765V8.32852ZM58.9498 8.32852H58.0187V6.66744C58.0187 6.41439 57.9581 6.21649 57.837 6.07373C57.7181 5.92883 57.5548 5.85637 57.3472 5.85637C57.1309 5.85637 56.9589 5.93207 56.8314 6.08347C56.7059 6.2327 56.6432 6.43602 56.6432 6.6934V8.32852H55.7121V5.08422H56.4647L56.4971 5.60331C56.614 5.41299 56.7664 5.26807 56.9546 5.16858C57.1428 5.06908 57.3645 5.01934 57.6197 5.01934C58.0328 5.01934 58.3572 5.14695 58.593 5.40216C58.8309 5.65523 58.9498 6.0056 58.9498 6.45332V8.32852ZM60.7377 8.36746C60.4457 8.36746 60.184 8.295 59.9526 8.15009C59.7212 8.00301 59.5395 7.80403 59.4075 7.55313C59.2756 7.30008 59.2096 7.0135 59.2096 6.6934C59.2096 6.37113 59.2756 6.08455 59.4075 5.83366C59.5395 5.58277 59.7212 5.38487 59.9526 5.23995C60.184 5.09288 60.4468 5.01934 60.7409 5.01934C60.9702 5.01934 61.18 5.06476 61.3704 5.1556C61.5628 5.24428 61.7283 5.36756 61.8667 5.52545L61.9089 5.08422H62.7265V8.23768C62.7265 8.59676 62.6475 8.90929 62.4896 9.1753C62.3339 9.44345 62.1133 9.65007 61.8278 9.79498C61.5423 9.94203 61.2081 10.0156 60.8254 10.0156C60.2932 10.0156 59.811 9.84901 59.3784 9.51591L59.7547 8.75678C60.0423 9.04012 60.3776 9.18179 60.7604 9.18179C60.9659 9.18179 61.1454 9.14065 61.299 9.05847C61.4547 8.97628 61.5759 8.86166 61.6623 8.71462C61.751 8.56752 61.7954 8.39665 61.7954 8.20199V7.93596C61.6613 8.07006 61.5044 8.17604 61.325 8.25391C61.1454 8.32961 60.9497 8.36746 60.7377 8.36746ZM60.9778 7.53692C61.1292 7.53692 61.2665 7.50447 61.3898 7.43958C61.5131 7.37254 61.6115 7.28061 61.685 7.16382C61.7586 7.04486 61.7954 6.91077 61.7954 6.76153V6.62202C61.7954 6.47278 61.7575 6.33977 61.6818 6.22297C61.6083 6.10618 61.5099 6.01534 61.3866 5.95045C61.2655 5.88341 61.1292 5.84988 60.9778 5.84988C60.822 5.84988 60.6826 5.88665 60.5593 5.96018C60.436 6.03372 60.3386 6.13429 60.2673 6.26191C60.1959 6.38735 60.1603 6.53118 60.1603 6.6934C60.1603 6.85561 60.1959 7.00052 60.2673 7.12813C60.3386 7.25574 60.436 7.35631 60.5593 7.42985C60.6826 7.50123 60.822 7.53692 60.9778 7.53692Z" fill="#333461"/>
</g>
<defs>
<clipPath id="clip0_1602_60">
<rect width="63.325" height="11.6067" fill="white" transform="translate(0.600098 0.050293)"/>
</clipPath>
</defs>
</svg>
