<svg width="50" height="10" viewBox="0 0 50 10" fill="none" xmlns="http://www.w3.org/2000/svg">
<g clip-path="url(#clip0_536_5748)">
<path d="M4.05355 1.4826C4.12614 1.30807 4.37337 1.30807 4.44596 1.4826L5.32405 3.59378C5.35465 3.66735 5.42384 3.71762 5.50327 3.72399L7.78247 3.90671C7.97088 3.92182 8.04728 4.15695 7.90373 4.27992L6.16722 5.76742C6.10671 5.81926 6.08028 5.9006 6.09877 5.97811L6.6293 8.20222C6.67316 8.38608 6.47314 8.5314 6.31183 8.43287L4.36052 7.24102C4.29252 7.19948 4.20699 7.19948 4.13899 7.24102L2.18768 8.43287C2.02637 8.5314 1.82636 8.38608 1.87021 8.20222L2.40074 5.97811C2.41923 5.9006 2.3928 5.81926 2.33229 5.76742L0.595781 4.27992C0.452229 4.15695 0.528629 3.92182 0.717043 3.90671L2.99624 3.72399C3.07567 3.71762 3.14486 3.66735 3.17546 3.59378L4.05355 1.4826Z" fill="#F2F4F7"/>
<g clip-path="url(#clip1_536_5748)">
<path d="M4.05355 1.4826C4.12614 1.30807 4.37337 1.30807 4.44596 1.4826L5.32405 3.59378C5.35465 3.66735 5.42384 3.71762 5.50327 3.72399L7.78247 3.90671C7.97088 3.92182 8.04728 4.15695 7.90373 4.27992L6.16722 5.76742C6.10671 5.81926 6.08028 5.9006 6.09877 5.97811L6.6293 8.20222C6.67316 8.38608 6.47314 8.5314 6.31183 8.43287L4.36052 7.24102C4.29252 7.19948 4.20699 7.19948 4.13899 7.24102L2.18768 8.43287C2.02637 8.5314 1.82636 8.38608 1.87021 8.20222L2.40074 5.97811C2.41923 5.9006 2.3928 5.81926 2.33229 5.76742L0.595781 4.27992C0.452229 4.15695 0.528629 3.92182 0.717043 3.90671L2.99624 3.72399C3.07567 3.71762 3.14486 3.66735 3.17546 3.59378L4.05355 1.4826Z" fill="#FEC84B"/>
</g>
</g>
<g clip-path="url(#clip2_536_5748)">
<path d="M14.2535 1.4826C14.3261 1.30807 14.5733 1.30807 14.6459 1.4826L15.524 3.59378C15.5546 3.66735 15.6238 3.71762 15.7032 3.72399L17.9824 3.90671C18.1708 3.92182 18.2472 4.15695 18.1037 4.27992L16.3672 5.76742C16.3067 5.81926 16.2802 5.9006 16.2987 5.97811L16.8292 8.20222C16.8731 8.38608 16.6731 8.5314 16.5118 8.43287L14.5605 7.24102C14.4925 7.19948 14.4069 7.19948 14.3389 7.24102L12.3876 8.43287C12.2263 8.5314 12.0263 8.38608 12.0702 8.20222L12.6007 5.97811C12.6192 5.9006 12.5928 5.81926 12.5322 5.76742L10.7957 4.27992C10.6522 4.15695 10.7286 3.92182 10.917 3.90671L13.1962 3.72399C13.2756 3.71762 13.3448 3.66735 13.3754 3.59378L14.2535 1.4826Z" fill="#F2F4F7"/>
<g clip-path="url(#clip3_536_5748)">
<path d="M14.2535 1.4826C14.3261 1.30807 14.5733 1.30807 14.6459 1.4826L15.524 3.59378C15.5546 3.66735 15.6238 3.71762 15.7032 3.72399L17.9824 3.90671C18.1708 3.92182 18.2472 4.15695 18.1037 4.27992L16.3672 5.76742C16.3067 5.81926 16.2802 5.9006 16.2987 5.97811L16.8292 8.20222C16.8731 8.38608 16.6731 8.5314 16.5118 8.43287L14.5605 7.24102C14.4925 7.19948 14.4069 7.19948 14.3389 7.24102L12.3876 8.43287C12.2263 8.5314 12.0263 8.38608 12.0702 8.20222L12.6007 5.97811C12.6192 5.9006 12.5928 5.81926 12.5322 5.76742L10.7957 4.27992C10.6522 4.15695 10.7286 3.92182 10.917 3.90671L13.1962 3.72399C13.2756 3.71762 13.3448 3.66735 13.3754 3.59378L14.2535 1.4826Z" fill="#FEC84B"/>
</g>
</g>
<g clip-path="url(#clip4_536_5748)">
<path d="M24.4535 1.4826C24.526 1.30807 24.7733 1.30807 24.8459 1.4826L25.724 3.59378C25.7546 3.66735 25.8237 3.71762 25.9032 3.72399L28.1824 3.90671C28.3708 3.92182 28.4472 4.15695 28.3036 4.27992L26.5671 5.76742C26.5066 5.81926 26.4802 5.9006 26.4987 5.97811L27.0292 8.20222C27.0731 8.38608 26.873 8.5314 26.7117 8.43287L24.7604 7.24102C24.6924 7.19948 24.6069 7.19948 24.5389 7.24102L22.5876 8.43287C22.4263 8.5314 22.2263 8.38608 22.2701 8.20222L22.8006 5.97811C22.8191 5.9006 22.7927 5.81926 22.7322 5.76742L20.9957 4.27992C20.8521 4.15695 20.9285 3.92182 21.1169 3.90671L23.3961 3.72399C23.4756 3.71762 23.5448 3.66735 23.5754 3.59378L24.4535 1.4826Z" fill="#F2F4F7"/>
<g clip-path="url(#clip5_536_5748)">
<path d="M24.4535 1.4826C24.526 1.30807 24.7733 1.30807 24.8459 1.4826L25.724 3.59378C25.7546 3.66735 25.8237 3.71762 25.9032 3.72399L28.1824 3.90671C28.3708 3.92182 28.4472 4.15695 28.3036 4.27992L26.5671 5.76742C26.5066 5.81926 26.4802 5.9006 26.4987 5.97811L27.0292 8.20222C27.0731 8.38608 26.873 8.5314 26.7117 8.43287L24.7604 7.24102C24.6924 7.19948 24.6069 7.19948 24.5389 7.24102L22.5876 8.43287C22.4263 8.5314 22.2263 8.38608 22.2701 8.20222L22.8006 5.97811C22.8191 5.9006 22.7927 5.81926 22.7322 5.76742L20.9957 4.27992C20.8521 4.15695 20.9285 3.92182 21.1169 3.90671L23.3961 3.72399C23.4756 3.71762 23.5448 3.66735 23.5754 3.59378L24.4535 1.4826Z" fill="#FEC84B"/>
</g>
</g>
<g clip-path="url(#clip6_536_5748)">
<path d="M34.6536 1.4826C34.7262 1.30807 34.9735 1.30807 35.0461 1.4826L35.9241 3.59378C35.9547 3.66735 36.0239 3.71762 36.1034 3.72399L38.3826 3.90671C38.571 3.92182 38.6474 4.15695 38.5038 4.27992L36.7673 5.76742C36.7068 5.81926 36.6804 5.9006 36.6989 5.97811L37.2294 8.20222C37.2733 8.38608 37.0732 8.5314 36.9119 8.43287L34.9606 7.24102C34.8926 7.19948 34.8071 7.19948 34.7391 7.24102L32.7878 8.43287C32.6265 8.5314 32.4265 8.38608 32.4703 8.20222L33.0008 5.97811C33.0193 5.9006 32.9929 5.81926 32.9324 5.76742L31.1959 4.27992C31.0523 4.15695 31.1287 3.92182 31.3171 3.90671L33.5963 3.72399C33.6758 3.71762 33.745 3.66735 33.7756 3.59378L34.6536 1.4826Z" fill="#F2F4F7"/>
<g clip-path="url(#clip7_536_5748)">
<path d="M34.6536 1.4826C34.7262 1.30807 34.9735 1.30807 35.0461 1.4826L35.9241 3.59378C35.9547 3.66735 36.0239 3.71762 36.1034 3.72399L38.3826 3.90671C38.571 3.92182 38.6474 4.15695 38.5038 4.27992L36.7673 5.76742C36.7068 5.81926 36.6804 5.9006 36.6989 5.97811L37.2294 8.20222C37.2733 8.38608 37.0732 8.5314 36.9119 8.43287L34.9606 7.24102C34.8926 7.19948 34.8071 7.19948 34.7391 7.24102L32.7878 8.43287C32.6265 8.5314 32.4265 8.38608 32.4703 8.20222L33.0008 5.97811C33.0193 5.9006 32.9929 5.81926 32.9324 5.76742L31.1959 4.27992C31.0523 4.15695 31.1287 3.92182 31.3171 3.90671L33.5963 3.72399C33.6758 3.71762 33.745 3.66735 33.7756 3.59378L34.6536 1.4826Z" fill="#FEC84B"/>
</g>
</g>
<g clip-path="url(#clip8_536_5748)">
<path d="M44.8536 1.4826C44.9262 1.30807 45.1734 1.30807 45.246 1.4826L46.1241 3.59378C46.1547 3.66735 46.2239 3.71762 46.3033 3.72399L48.5825 3.90671C48.7709 3.92182 48.8473 4.15695 48.7038 4.27992L46.9673 5.76742C46.9068 5.81926 46.8803 5.9006 46.8988 5.97811L47.4293 8.20222C47.4732 8.38608 47.2732 8.5314 47.1119 8.43287L45.1606 7.24102C45.0926 7.19948 45.007 7.19948 44.939 7.24102L42.9877 8.43287C42.8264 8.5314 42.6264 8.38608 42.6703 8.20222L43.2008 5.97811C43.2193 5.9006 43.1929 5.81926 43.1323 5.76742L41.3958 4.27992C41.2523 4.15695 41.3287 3.92182 41.5171 3.90671L43.7963 3.72399C43.8757 3.71762 43.9449 3.66735 43.9755 3.59378L44.8536 1.4826Z" fill="#F2F4F7"/>
<g clip-path="url(#clip9_536_5748)">
<path d="M44.8536 1.4826C44.9262 1.30807 45.1734 1.30807 45.246 1.4826L46.1241 3.59378C46.1547 3.66735 46.2239 3.71762 46.3033 3.72399L48.5825 3.90671C48.7709 3.92182 48.8473 4.15695 48.7038 4.27992L46.9673 5.76742C46.9068 5.81926 46.8803 5.9006 46.8988 5.97811L47.4293 8.20222C47.4732 8.38608 47.2732 8.5314 47.1119 8.43287L45.1606 7.24102C45.0926 7.19948 45.007 7.19948 44.939 7.24102L42.9877 8.43287C42.8264 8.5314 42.6264 8.38608 42.6703 8.20222L43.2008 5.97811C43.2193 5.9006 43.1929 5.81926 43.1323 5.76742L41.3958 4.27992C41.2523 4.15695 41.3287 3.92182 41.5171 3.90671L43.7963 3.72399C43.8757 3.71762 43.9449 3.66735 43.9755 3.59378L44.8536 1.4826Z" fill="#FEC84B"/>
</g>
</g>
<defs>
<clipPath id="clip0_536_5748">
<rect width="8.5" height="8.5" fill="white" transform="translate(-0.000244141 0.79834)"/>
</clipPath>
<clipPath id="clip1_536_5748">
<rect width="8.5" height="8.5" fill="white" transform="translate(-0.000244141 0.79834)"/>
</clipPath>
<clipPath id="clip2_536_5748">
<rect width="8.5" height="8.5" fill="white" transform="translate(10.1997 0.79834)"/>
</clipPath>
<clipPath id="clip3_536_5748">
<rect width="8.5" height="8.5" fill="white" transform="translate(10.1997 0.79834)"/>
</clipPath>
<clipPath id="clip4_536_5748">
<rect width="8.5" height="8.5" fill="white" transform="translate(20.3997 0.79834)"/>
</clipPath>
<clipPath id="clip5_536_5748">
<rect width="8.5" height="8.5" fill="white" transform="translate(20.3997 0.79834)"/>
</clipPath>
<clipPath id="clip6_536_5748">
<rect width="8.5" height="8.5" fill="white" transform="translate(30.5999 0.79834)"/>
</clipPath>
<clipPath id="clip7_536_5748">
<rect width="8.5" height="8.5" fill="white" transform="translate(30.5999 0.79834)"/>
</clipPath>
<clipPath id="clip8_536_5748">
<rect width="8.5" height="8.5" fill="white" transform="translate(40.7998 0.79834)"/>
</clipPath>
<clipPath id="clip9_536_5748">
<rect width="8.5" height="8.5" fill="white" transform="translate(40.7998 0.79834)"/>
</clipPath>
</defs>
</svg>
