<svg width="182" height="128" viewBox="0 0 182 128" fill="none" xmlns="http://www.w3.org/2000/svg">
<g filter="url(#filter0_d_536_5727)">
<rect width="99.9998" height="45.0002" transform="translate(40.7998 34.8742)" fill="white"/>
<path d="M82.7682 55.0742V50.3516L81.8094 51.0656L80.9118 49.658L83.1864 48.0668H84.6858V55.0742H82.7682ZM90.211 54.2072C89.701 54.8532 89.0142 55.1762 88.1506 55.1762C87.287 55.1762 86.5968 54.8532 86.08 54.2072C85.57 53.5612 85.315 52.6806 85.315 51.5654C85.315 50.4706 85.57 49.5968 86.08 48.944C86.5968 48.2912 87.287 47.9648 88.1506 47.9648C89.0142 47.9648 89.701 48.2878 90.211 48.9338C90.7278 49.5798 90.9862 50.457 90.9862 51.5654C90.9862 52.6738 90.7278 53.5544 90.211 54.2072ZM88.1506 53.4014C88.4158 53.4014 88.6266 53.2518 88.783 52.9526C88.9462 52.6534 89.0278 52.191 89.0278 51.5654C89.0278 51.0078 88.9564 50.5658 88.8136 50.2394C88.6708 49.9062 88.4498 49.7396 88.1506 49.7396C87.8786 49.7396 87.6644 49.8892 87.508 50.1884C87.3516 50.4876 87.2734 50.9466 87.2734 51.5654C87.2734 52.1298 87.3448 52.5786 87.4876 52.9118C87.6304 53.2382 87.8514 53.4014 88.1506 53.4014ZM96.2103 54.2072C95.7003 54.8532 95.0135 55.1762 94.1499 55.1762C93.2863 55.1762 92.5961 54.8532 92.0793 54.2072C91.5693 53.5612 91.3143 52.6806 91.3143 51.5654C91.3143 50.4706 91.5693 49.5968 92.0793 48.944C92.5961 48.2912 93.2863 47.9648 94.1499 47.9648C95.0135 47.9648 95.7003 48.2878 96.2103 48.9338C96.7271 49.5798 96.9855 50.457 96.9855 51.5654C96.9855 52.6738 96.7271 53.5544 96.2103 54.2072ZM94.1499 53.4014C94.4151 53.4014 94.6259 53.2518 94.7823 52.9526C94.9455 52.6534 95.0271 52.191 95.0271 51.5654C95.0271 51.0078 94.9557 50.5658 94.8129 50.2394C94.6701 49.9062 94.4491 49.7396 94.1499 49.7396C93.8779 49.7396 93.6637 49.8892 93.5073 50.1884C93.3509 50.4876 93.2727 50.9466 93.2727 51.5654C93.2727 52.1298 93.3441 52.5786 93.4869 52.9118C93.6297 53.2382 93.8507 53.4014 94.1499 53.4014ZM101.128 55.3598L99.8839 54.8294L103.128 47.6486L104.362 48.1892L101.128 55.3598ZM99.2617 51.8306C98.6769 51.8306 98.1839 51.6402 97.7827 51.2594C97.3883 50.8718 97.1911 50.3754 97.1911 49.7702C97.1911 49.199 97.3815 48.7196 97.7623 48.332C98.1499 47.9376 98.6497 47.7404 99.2617 47.7404C99.8465 47.7404 100.34 47.9308 100.741 48.3116C101.142 48.6856 101.343 49.1718 101.343 49.7702C101.343 50.3482 101.149 50.8378 100.761 51.239C100.374 51.6334 99.8737 51.8306 99.2617 51.8306ZM99.2719 50.6678C99.5031 50.6678 99.6901 50.5828 99.8329 50.4128C99.9757 50.2428 100.047 50.0354 100.047 49.7906C100.047 49.5322 99.9723 49.3214 99.8227 49.1582C99.6731 48.995 99.4895 48.9134 99.2719 48.9134C99.0475 48.9134 98.8605 48.9984 98.7109 49.1684C98.5681 49.3384 98.4967 49.5458 98.4967 49.7906C98.4967 50.049 98.5715 50.2598 98.7211 50.423C98.8707 50.5862 99.0543 50.6678 99.2719 50.6678ZM104.974 55.1762C104.389 55.1762 103.896 54.9858 103.495 54.605C103.1 54.2174 102.903 53.7244 102.903 53.126C102.903 52.548 103.094 52.0618 103.474 51.6674C103.862 51.273 104.362 51.0758 104.974 51.0758C105.559 51.0758 106.048 51.2662 106.443 51.647C106.844 52.0278 107.044 52.5208 107.044 53.126C107.044 53.6972 106.851 54.1834 106.463 54.5846C106.082 54.979 105.586 55.1762 104.974 55.1762ZM104.984 54.0134C105.215 54.0134 105.402 53.9284 105.545 53.7584C105.688 53.5884 105.759 53.381 105.759 53.1362C105.759 52.8778 105.684 52.6704 105.535 52.514C105.385 52.3508 105.202 52.2692 104.984 52.2692C104.753 52.2692 104.566 52.3542 104.423 52.5242C104.28 52.6874 104.209 52.8914 104.209 53.1362C104.209 53.3946 104.284 53.6054 104.433 53.7686C104.583 53.9318 104.766 54.0134 104.984 54.0134Z" fill="#333461"/>
<path d="M82.2543 65.705C81.7477 65.705 81.3193 65.518 80.9691 65.144L81.2547 64.8074C81.3805 64.9638 81.5335 65.0828 81.7137 65.1644C81.8939 65.246 82.0758 65.2868 82.2594 65.2868C82.4838 65.2868 82.6623 65.2375 82.7949 65.1389C82.9309 65.0403 82.9989 64.9043 82.9989 64.7309C82.9989 64.6357 82.9819 64.5541 82.9479 64.4861C82.9173 64.4181 82.8629 64.3586 82.7847 64.3076C82.7065 64.2532 82.63 64.2107 82.5552 64.1801C82.4838 64.1461 82.3801 64.1036 82.2441 64.0526C82.2203 64.0424 82.2016 64.0356 82.188 64.0322C82.0554 63.9846 81.9466 63.9438 81.8616 63.9098C81.78 63.8724 81.6848 63.8214 81.576 63.7568C81.4706 63.6922 81.3873 63.6276 81.3261 63.563C81.2683 63.495 81.2173 63.4117 81.1731 63.3131C81.1289 63.2111 81.1068 63.0989 81.1068 62.9765C81.1068 62.7079 81.2139 62.4818 81.4281 62.2982C81.6423 62.1146 81.9041 62.0211 82.2135 62.0177C82.6215 62.0177 83.004 62.1588 83.361 62.441L83.0907 62.7878C82.8085 62.5498 82.5161 62.4308 82.2135 62.4308C82.0367 62.4308 81.8854 62.4784 81.7596 62.5736C81.6338 62.6654 81.5709 62.7929 81.5709 62.9561C81.5709 63.0241 81.5845 63.087 81.6117 63.1448C81.6389 63.1992 81.6695 63.2451 81.7035 63.2825C81.7375 63.3165 81.797 63.3556 81.882 63.3998C81.967 63.444 82.0333 63.478 82.0809 63.5018C82.1319 63.5222 82.2186 63.5562 82.341 63.6038C82.715 63.7466 82.9615 63.8588 83.0805 63.9404C83.3355 64.1138 83.463 64.362 83.463 64.685C83.463 65.0046 83.344 65.2545 83.106 65.4347C82.8714 65.6149 82.5875 65.705 82.2543 65.705ZM85.7681 63.1907H86.1812V65.6744H85.7681V65.2613H85.763C85.5556 65.5571 85.2836 65.705 84.947 65.705C84.6512 65.705 84.4217 65.62 84.2585 65.45C84.0953 65.2766 84.0137 65.0165 84.0137 64.6697V63.1907H84.4268V64.5524C84.4268 64.8278 84.4761 65.0267 84.5747 65.1491C84.6767 65.2681 84.8297 65.3276 85.0337 65.3276C85.2377 65.3276 85.4111 65.2443 85.5539 65.0777C85.6967 64.9077 85.7681 64.6799 85.7681 64.3943V63.1907ZM87.9685 65.705C87.6081 65.705 87.3123 65.5877 87.0811 65.3531C86.8533 65.1151 86.7394 64.8091 86.7394 64.4351C86.7394 64.0611 86.855 63.7551 87.0862 63.5171C87.3208 63.2791 87.62 63.1601 87.9838 63.1601C88.1742 63.1601 88.3578 63.1992 88.5346 63.2774C88.7148 63.3522 88.8644 63.461 88.9834 63.6038L88.6978 63.8537C88.5312 63.6463 88.3 63.5426 88.0042 63.5426C87.756 63.5426 87.552 63.6259 87.3922 63.7925C87.2358 63.9591 87.1576 64.1733 87.1576 64.4351C87.1576 64.7003 87.2358 64.9162 87.3922 65.0828C87.5486 65.246 87.7526 65.3276 88.0042 65.3276C88.2932 65.3276 88.5278 65.229 88.708 65.0318L88.9936 65.2868C88.8848 65.4092 88.7403 65.5095 88.5601 65.5877C88.3799 65.6659 88.1827 65.705 87.9685 65.705ZM90.5821 65.705C90.2217 65.705 89.9259 65.5877 89.6947 65.3531C89.4669 65.1151 89.353 64.8091 89.353 64.4351C89.353 64.0611 89.4686 63.7551 89.6998 63.5171C89.9344 63.2791 90.2336 63.1601 90.5974 63.1601C90.7878 63.1601 90.9714 63.1992 91.1482 63.2774C91.3284 63.3522 91.478 63.461 91.597 63.6038L91.3114 63.8537C91.1448 63.6463 90.9136 63.5426 90.6178 63.5426C90.3696 63.5426 90.1656 63.6259 90.0058 63.7925C89.8494 63.9591 89.7712 64.1733 89.7712 64.4351C89.7712 64.7003 89.8494 64.9162 90.0058 65.0828C90.1622 65.246 90.3662 65.3276 90.6178 65.3276C90.9068 65.3276 91.1414 65.229 91.3216 65.0318L91.6072 65.2868C91.4984 65.4092 91.3539 65.5095 91.1737 65.5877C90.9935 65.6659 90.7963 65.705 90.5821 65.705ZM94.3074 64.3943C94.3074 64.4215 94.3057 64.4572 94.3023 64.5014L94.2972 64.5626H92.3847C92.4119 64.7938 92.5003 64.9791 92.6499 65.1185C92.8029 65.2579 92.9916 65.3276 93.216 65.3276C93.505 65.3276 93.7379 65.2154 93.9147 64.991L94.2054 65.2409C93.964 65.5503 93.6291 65.705 93.2007 65.705C92.8437 65.705 92.5479 65.5877 92.3133 65.3531C92.0821 65.1151 91.9665 64.8091 91.9665 64.4351C91.9665 64.0645 92.0787 63.7602 92.3031 63.5222C92.5309 63.2808 92.8148 63.1601 93.1548 63.1601C93.4982 63.1601 93.7753 63.2757 93.9861 63.5069C94.2003 63.7381 94.3074 64.0339 94.3074 64.3943ZM93.6597 63.7262C93.5339 63.6038 93.3724 63.5426 93.1752 63.5426C92.978 63.5426 92.808 63.6038 92.6652 63.7262C92.5258 63.8452 92.4374 64.0101 92.4 64.2209H93.8994C93.8654 64.0135 93.7855 63.8486 93.6597 63.7262ZM95.6424 65.705C95.2582 65.705 94.9335 65.586 94.6683 65.348L94.8825 65.0369C95.0967 65.2341 95.35 65.3327 95.6424 65.3327C95.7852 65.3327 95.8991 65.3004 95.9841 65.2358C96.0691 65.1712 96.1116 65.093 96.1116 65.0012C96.1116 64.906 96.0691 64.8346 95.9841 64.787C95.9025 64.736 95.758 64.6748 95.5506 64.6034C95.537 64.6 95.5268 64.5966 95.52 64.5932C95.2786 64.5082 95.0933 64.4113 94.9641 64.3025C94.8383 64.1937 94.7754 64.0356 94.7754 63.8282C94.7754 63.6378 94.8519 63.4797 95.0049 63.3539C95.1613 63.2247 95.3585 63.1601 95.5965 63.1601C95.9127 63.1601 96.1966 63.2621 96.4482 63.4661L96.234 63.7925C96.0368 63.6225 95.8175 63.5375 95.5761 63.5375C95.4775 63.5375 95.3891 63.5647 95.3109 63.6191C95.2327 63.6735 95.1936 63.7432 95.1936 63.8282C95.1936 63.9166 95.231 63.988 95.3058 64.0424C95.384 64.0968 95.503 64.1546 95.6628 64.2158C95.69 64.226 95.7393 64.2447 95.8107 64.2719C95.8855 64.2991 95.9348 64.3178 95.9586 64.328C95.9824 64.3382 96.0232 64.3569 96.081 64.3841C96.1388 64.4079 96.1779 64.4266 96.1983 64.4402C96.2187 64.4504 96.2493 64.4691 96.2901 64.4963C96.3343 64.5235 96.3632 64.5473 96.3768 64.5677C96.3938 64.5881 96.4142 64.6153 96.438 64.6493C96.4652 64.6833 96.4839 64.7173 96.4941 64.7513C96.5043 64.7819 96.5128 64.8193 96.5196 64.8635C96.5264 64.9043 96.5298 64.9485 96.5298 64.9961C96.5298 65.2001 96.4533 65.3701 96.3003 65.5061C96.1473 65.6387 95.928 65.705 95.6424 65.705ZM97.8425 65.705C97.4583 65.705 97.1336 65.586 96.8684 65.348L97.0826 65.0369C97.2968 65.2341 97.5501 65.3327 97.8425 65.3327C97.9853 65.3327 98.0992 65.3004 98.1842 65.2358C98.2692 65.1712 98.3117 65.093 98.3117 65.0012C98.3117 64.906 98.2692 64.8346 98.1842 64.787C98.1026 64.736 97.9581 64.6748 97.7507 64.6034C97.7371 64.6 97.7269 64.5966 97.7201 64.5932C97.4787 64.5082 97.2934 64.4113 97.1642 64.3025C97.0384 64.1937 96.9755 64.0356 96.9755 63.8282C96.9755 63.6378 97.052 63.4797 97.205 63.3539C97.3614 63.2247 97.5586 63.1601 97.7966 63.1601C98.1128 63.1601 98.3967 63.2621 98.6483 63.4661L98.4341 63.7925C98.2369 63.6225 98.0176 63.5375 97.7762 63.5375C97.6776 63.5375 97.5892 63.5647 97.511 63.6191C97.4328 63.6735 97.3937 63.7432 97.3937 63.8282C97.3937 63.9166 97.4311 63.988 97.5059 64.0424C97.5841 64.0968 97.7031 64.1546 97.8629 64.2158C97.8901 64.226 97.9394 64.2447 98.0108 64.2719C98.0856 64.2991 98.1349 64.3178 98.1587 64.328C98.1825 64.3382 98.2233 64.3569 98.2811 64.3841C98.3389 64.4079 98.378 64.4266 98.3984 64.4402C98.4188 64.4504 98.4494 64.4691 98.4902 64.4963C98.5344 64.5235 98.5633 64.5473 98.5769 64.5677C98.5939 64.5881 98.6143 64.6153 98.6381 64.6493C98.6653 64.6833 98.684 64.7173 98.6942 64.7513C98.7044 64.7819 98.7129 64.8193 98.7197 64.8635C98.7265 64.9043 98.7299 64.9485 98.7299 64.9961C98.7299 65.2001 98.6534 65.3701 98.5004 65.5061C98.3474 65.6387 98.1281 65.705 97.8425 65.705ZM101.865 63.1601C101.916 63.1601 101.95 63.1618 101.967 63.1652V63.6242C101.893 63.6174 101.838 63.614 101.804 63.614C101.573 63.614 101.389 63.6939 101.253 63.8537C101.117 64.0135 101.049 64.2209 101.049 64.4759V65.6744H100.636V63.1907H101.049V63.6293H101.055C101.248 63.3165 101.519 63.1601 101.865 63.1601ZM104.256 63.1907H104.669V65.6744H104.272V65.2817H104.266C104.056 65.5639 103.767 65.705 103.399 65.705C103.049 65.705 102.759 65.5894 102.527 65.3582C102.296 65.127 102.181 64.8244 102.181 64.4504C102.181 64.0832 102.294 63.7772 102.522 63.5324C102.753 63.2842 103.044 63.1601 103.394 63.1601C103.748 63.1601 104.034 63.2944 104.251 63.563H104.256V63.1907ZM103.435 65.3276C103.666 65.3276 103.864 65.246 104.027 65.0828C104.19 64.9162 104.272 64.7054 104.272 64.4504C104.272 64.1954 104.192 63.9812 104.032 63.8078C103.875 63.631 103.678 63.5426 103.44 63.5426C103.202 63.5426 103.002 63.6276 102.838 63.7976C102.679 63.9642 102.599 64.1818 102.599 64.4504C102.599 64.7054 102.675 64.9162 102.828 65.0828C102.985 65.246 103.187 65.3276 103.435 65.3276ZM106.084 65.705C105.652 65.705 105.436 65.4483 105.436 64.9349V63.5477H105.12V63.1907H105.436V62.3441L105.85 62.2982V63.1907H106.676V63.5477H105.85V64.8737C105.85 65.0267 105.872 65.1389 105.916 65.2103C105.963 65.2817 106.043 65.3174 106.156 65.3174C106.285 65.3174 106.424 65.2749 106.574 65.1899L106.686 65.552C106.502 65.654 106.302 65.705 106.084 65.705ZM109.26 64.3943C109.26 64.4215 109.259 64.4572 109.255 64.5014L109.25 64.5626H107.338C107.365 64.7938 107.453 64.9791 107.603 65.1185C107.756 65.2579 107.945 65.3276 108.169 65.3276C108.458 65.3276 108.691 65.2154 108.868 64.991L109.158 65.2409C108.917 65.5503 108.582 65.705 108.154 65.705C107.797 65.705 107.501 65.5877 107.266 65.3531C107.035 65.1151 106.919 64.8091 106.919 64.4351C106.919 64.0645 107.032 63.7602 107.256 63.5222C107.484 63.2808 107.768 63.1601 108.108 63.1601C108.451 63.1601 108.728 63.2757 108.939 63.5069C109.153 63.7381 109.26 64.0339 109.26 64.3943ZM108.613 63.7262C108.487 63.6038 108.325 63.5426 108.128 63.5426C107.931 63.5426 107.761 63.6038 107.618 63.7262C107.479 63.8452 107.39 64.0101 107.353 64.2209H108.852C108.818 64.0135 108.738 63.8486 108.613 63.7262ZM111.893 65.705C111.461 65.705 111.245 65.4483 111.245 64.9349V63.5477H110.929V63.1907H111.245V62.3441L111.658 62.2982V63.1907H112.484V63.5477H111.658V64.8737C111.658 65.0267 111.68 65.1389 111.724 65.2103C111.772 65.2817 111.852 65.3174 111.964 65.3174C112.093 65.3174 112.233 65.2749 112.382 65.1899L112.495 65.552C112.311 65.654 112.11 65.705 111.893 65.705ZM114.332 63.1601C114.614 63.1601 114.835 63.2451 114.995 63.4151C115.155 63.5851 115.235 63.8418 115.235 64.1852V65.6744H114.821V64.3025C114.821 63.7959 114.619 63.5426 114.215 63.5426C113.966 63.5426 113.769 63.6208 113.623 63.7772C113.48 63.9336 113.409 64.1495 113.409 64.4249V65.6744H112.996V61.9208H113.409V63.5987H113.419C113.626 63.3063 113.931 63.1601 114.332 63.1601ZM116.168 62.7317C116.083 62.7317 116.011 62.7045 115.954 62.6501C115.899 62.5923 115.872 62.5226 115.872 62.441C115.872 62.3594 115.899 62.2914 115.954 62.237C116.011 62.1792 116.083 62.1503 116.168 62.1503C116.249 62.1503 116.319 62.1792 116.377 62.237C116.435 62.2948 116.464 62.3628 116.464 62.441C116.464 62.5226 116.435 62.5923 116.377 62.6501C116.319 62.7045 116.249 62.7317 116.168 62.7317ZM115.959 65.6744V63.1907H116.372V65.6744H115.959ZM117.907 65.705C117.523 65.705 117.198 65.586 116.933 65.348L117.147 65.0369C117.361 65.2341 117.614 65.3327 117.907 65.3327C118.05 65.3327 118.164 65.3004 118.249 65.2358C118.334 65.1712 118.376 65.093 118.376 65.0012C118.376 64.906 118.334 64.8346 118.249 64.787C118.167 64.736 118.022 64.6748 117.815 64.6034C117.801 64.6 117.791 64.5966 117.784 64.5932C117.543 64.5082 117.358 64.4113 117.229 64.3025C117.103 64.1937 117.04 64.0356 117.04 63.8282C117.04 63.6378 117.116 63.4797 117.269 63.3539C117.426 63.2247 117.623 63.1601 117.861 63.1601C118.177 63.1601 118.461 63.2621 118.713 63.4661L118.498 63.7925C118.301 63.6225 118.082 63.5375 117.841 63.5375C117.742 63.5375 117.654 63.5647 117.575 63.6191C117.497 63.6735 117.458 63.7432 117.458 63.8282C117.458 63.9166 117.495 63.988 117.57 64.0424C117.648 64.0968 117.767 64.1546 117.927 64.2158C117.954 64.226 118.004 64.2447 118.075 64.2719C118.15 64.2991 118.199 64.3178 118.223 64.328C118.247 64.3382 118.288 64.3569 118.345 64.3841C118.403 64.4079 118.442 64.4266 118.463 64.4402C118.483 64.4504 118.514 64.4691 118.555 64.4963C118.599 64.5235 118.628 64.5473 118.641 64.5677C118.658 64.5881 118.679 64.6153 118.702 64.6493C118.73 64.6833 118.748 64.7173 118.759 64.7513C118.769 64.7819 118.777 64.8193 118.784 64.8635C118.791 64.9043 118.794 64.9485 118.794 64.9961C118.794 65.2001 118.718 65.3701 118.565 65.5061C118.412 65.6387 118.192 65.705 117.907 65.705ZM122.435 63.1907H122.873L121.471 66.6842H121.032L121.476 65.5724L120.425 63.1907H120.869L121.675 65.0828H121.685L122.435 63.1907ZM125.397 64.3943C125.397 64.4215 125.396 64.4572 125.392 64.5014L125.387 64.5626H123.475C123.502 64.7938 123.59 64.9791 123.74 65.1185C123.893 65.2579 124.082 65.3276 124.306 65.3276C124.595 65.3276 124.828 65.2154 125.005 64.991L125.295 65.2409C125.054 65.5503 124.719 65.705 124.291 65.705C123.934 65.705 123.638 65.5877 123.403 65.3531C123.172 65.1151 123.057 64.8091 123.057 64.4351C123.057 64.0645 123.169 63.7602 123.393 63.5222C123.621 63.2808 123.905 63.1601 124.245 63.1601C124.588 63.1601 124.865 63.2757 125.076 63.5069C125.29 63.7381 125.397 64.0339 125.397 64.3943ZM124.75 63.7262C124.624 63.6038 124.462 63.5426 124.265 63.5426C124.068 63.5426 123.898 63.6038 123.755 63.7262C123.616 63.8452 123.527 64.0101 123.49 64.2209H124.989C124.955 64.0135 124.876 63.8486 124.75 63.7262ZM127.9 63.1907H128.313V65.6744H127.916V65.2817H127.911C127.7 65.5639 127.411 65.705 127.044 65.705C126.693 65.705 126.403 65.5894 126.171 65.3582C125.94 65.127 125.825 64.8244 125.825 64.4504C125.825 64.0832 125.939 63.7772 126.166 63.5324C126.398 63.2842 126.688 63.1601 127.038 63.1601C127.392 63.1601 127.678 63.2944 127.895 63.563H127.9V63.1907ZM127.079 65.3276C127.31 65.3276 127.508 65.246 127.671 65.0828C127.834 64.9162 127.916 64.7054 127.916 64.4504C127.916 64.1954 127.836 63.9812 127.676 63.8078C127.52 63.631 127.322 63.5426 127.084 63.5426C126.846 63.5426 126.646 63.6276 126.483 63.7976C126.323 63.9642 126.243 64.1818 126.243 64.4504C126.243 64.7054 126.319 64.9162 126.472 65.0828C126.629 65.246 126.831 65.3276 127.079 65.3276ZM130.253 63.1601C130.304 63.1601 130.338 63.1618 130.355 63.1652V63.6242C130.281 63.6174 130.226 63.614 130.192 63.614C129.961 63.614 129.777 63.6939 129.641 63.8537C129.505 64.0135 129.437 64.2209 129.437 64.4759V65.6744H129.024V63.1907H129.437V63.6293H129.443C129.636 63.3165 129.907 63.1601 130.253 63.1601Z" fill="#4A556C"/>
<g clip-path="url(#clip0_536_5727)">
<path d="M67.8084 52.0647C70.5193 54.7756 70.5193 59.1708 67.8084 61.8817C65.0975 64.5925 60.7023 64.5925 57.9914 61.8817C55.2805 59.1708 55.2805 54.7756 57.9914 52.0647C60.7023 49.3538 65.0975 49.3538 67.8084 52.0647Z" stroke="#20AD96" stroke-width="1.275" stroke-linecap="round" stroke-linejoin="round"/>
<path d="M64.3018 55.5708C65.0763 56.3453 65.0763 57.6011 64.3018 58.3756C63.5272 59.1502 62.2715 59.1502 61.4969 58.3756C60.7224 57.6011 60.7224 56.3453 61.4969 55.5708C62.2715 54.7962 63.5272 54.7962 64.3018 55.5708" stroke="#333461" stroke-width="1.275" stroke-linecap="round" stroke-linejoin="round"/>
<path d="M62.8997 65.8981V61.9314" stroke="#20AD96" stroke-width="1.275" stroke-linecap="round" stroke-linejoin="round"/>
<path d="M62.8997 48.0483V52.015" stroke="#20AD96" stroke-width="1.275" stroke-linecap="round" stroke-linejoin="round"/>
<path d="M57.941 56.973H53.9744" stroke="#20AD96" stroke-width="1.275" stroke-linecap="round" stroke-linejoin="round"/>
<path d="M71.8248 56.973H67.8582" stroke="#20AD96" stroke-width="1.275" stroke-linecap="round" stroke-linejoin="round"/>
</g>
</g>
<defs>
<filter id="filter0_d_536_5727" x="-0.000198364" y="0.874204" width="181.6" height="126.6" filterUnits="userSpaceOnUse" color-interpolation-filters="sRGB">
<feFlood flood-opacity="0" result="BackgroundImageFix"/>
<feColorMatrix in="SourceAlpha" type="matrix" values="0 0 0 0 0 0 0 0 0 0 0 0 0 0 0 0 0 0 127 0" result="hardAlpha"/>
<feOffset dy="6.8"/>
<feGaussianBlur stdDeviation="20.4"/>
<feColorMatrix type="matrix" values="0 0 0 0 0.434444 0 0 0 0 0.487333 0 0 0 0 0.566667 0 0 0 0.16 0"/>
<feBlend mode="normal" in2="BackgroundImageFix" result="effect1_dropShadow_536_5727"/>
<feBlend mode="normal" in="SourceGraphic" in2="effect1_dropShadow_536_5727" result="shape"/>
</filter>
<clipPath id="clip0_536_5727">
<rect width="23.8" height="23.8" fill="white" transform="translate(50.9998 45.0742)"/>
</clipPath>
</defs>
</svg>
